<?xml version="1.0" encoding="utf-8"?><!DOCTYPE svg PUBLIC "-//W3C//DTD SVG 1.1//EN" "http://www.w3.org/Graphics/SVG/1.1/DTD/svg11.dtd"><svg xmlns="http://www.w3.org/2000/svg" width="512" height="512" viewBox="0 0 57 57" shape-rendering="crispEdges"><path fill="#FFFFFF" d="M0 0h57v57H0z"/><path stroke="#000000" d="M4 4.5h7m1 0h1m1 0h2m2 0h6m6 0h3m3 0h1m2 0h2m3 0h1m1 0h7M4 5.5h1m5 0h1m1 0h1m1 0h3m1 0h1m1 0h4m3 0h2m2 0h1m1 0h1m1 0h3m1 0h2m1 0h3m1 0h1m5 0h1M4 6.5h1m1 0h3m1 0h1m1 0h2m2 0h1m1 0h4m1 0h2m1 0h2m8 0h4m3 0h2m1 0h1m1 0h3m1 0h1M4 7.5h1m1 0h3m1 0h1m2 0h5m2 0h3m6 0h5m5 0h3m1 0h1m2 0h1m1 0h3m1 0h1M4 8.5h1m1 0h3m1 0h1m2 0h2m3 0h1m7 0h5m1 0h1m1 0h1m1 0h1m2 0h2m5 0h1m1 0h3m1 0h1M4 9.5h1m5 0h1m1 0h2m1 0h6m1 0h1m2 0h2m3 0h1m3 0h1m1 0h1m1 0h1m2 0h2m3 0h1m5 0h1M4 10.5h7m1 0h1m1 0h1m1 0h1m1 0h1m1 0h1m1 0h1m1 0h1m1 0h1m1 0h1m1 0h1m1 0h1m1 0h1m1 0h1m1 0h1m1 0h1m1 0h1m1 0h1m1 0h7M12 11.5h3m3 0h1m1 0h4m2 0h1m3 0h3m1 0h2m2 0h1m4 0h2M6 12.5h3m1 0h1m1 0h3m1 0h3m2 0h10m2 0h1m1 0h2m1 0h4m2 0h4m2 0h3M4 13.5h2m5 0h2m2 0h2m2 0h1m2 0h1m2 0h1m1 0h2m1 0h1m1 0h3m5 0h2m3 0h3m2 0h1M5 14.5h2m3 0h1m1 0h1m2 0h1m1 0h1m1 0h1m2 0h2m2 0h2m1 0h1m1 0h1m3 0h1m1 0h2m1 0h3m4 0h1m1 0h2m1 0h1M4 15.5h3m1 0h2m6 0h1m2 0h2m1 0h4m1 0h2m1 0h1m3 0h2m2 0h1m2 0h1m4 0h2m3 0h2M5 16.5h1m2 0h3m3 0h1m1 0h4m1 0h1m7 0h1m2 0h1m1 0h5m1 0h1m1 0h6m1 0h3M4 17.5h2m3 0h1m1 0h2m1 0h1m1 0h3m1 0h2m1 0h3m1 0h2m1 0h1m1 0h2m1 0h1m1 0h1m2 0h1m2 0h1m1 0h2m1 0h2M4 18.5h1m3 0h3m2 0h1m1 0h1m1 0h4m3 0h1m5 0h1m1 0h1m2 0h1m2 0h1m1 0h5m4 0h1m1 0h2M4 19.5h3m1 0h1m3 0h2m2 0h3m1 0h1m6 0h1m1 0h1m5 0h1m1 0h2m2 0h1m1 0h4m1 0h2M4 20.5h3m2 0h2m2 0h2m2 0h1m4 0h5m1 0h2m2 0h1m1 0h1m1 0h1m1 0h1m1 0h8m1 0h3M4 21.5h4m1 0h1m1 0h2m1 0h1m1 0h5m1 0h1m3 0h1m1 0h3m1 0h2m2 0h2m1 0h1m5 0h6M4 22.5h1m2 0h2m1 0h1m2 0h1m2 0h1m3 0h1m1 0h1m3 0h1m1 0h2m1 0h2m1 0h1m2 0h1m2 0h1m1 0h1m4 0h3m2 0h1M4 23.5h1m11 0h2m7 0h1m1 0h1m2 0h1m1 0h1m1 0h3m2 0h1m1 0h2m3 0h3M4 24.5h2m2 0h3m1 0h4m2 0h1m3 0h2m1 0h5m1 0h1m3 0h3m1 0h4m1 0h1m1 0h2m2 0h1m1 0h1M5 25.5h1m1 0h3m1 0h7m2 0h2m1 0h1m4 0h3m1 0h4m3 0h1m5 0h2m3 0h1M7 26.5h6m1 0h2m5 0h2m1 0h1m1 0h5m1 0h3m1 0h3m1 0h1m1 0h1m1 0h9M6 27.5h1m1 0h1m3 0h2m1 0h3m1 0h1m5 0h2m3 0h1m1 0h1m1 0h1m2 0h3m1 0h1m2 0h1m3 0h1m2 0h2M5 28.5h1m2 0h1m1 0h1m1 0h1m1 0h1m4 0h1m1 0h1m4 0h1m1 0h1m1 0h1m2 0h1m1 0h7m2 0h1m1 0h1m1 0h3m1 0h1M6 29.5h1m1 0h1m3 0h2m1 0h5m4 0h3m3 0h1m3 0h1m1 0h1m2 0h1m1 0h1m2 0h1m3 0h1m2 0h1M7 30.5h9m1 0h1m4 0h1m1 0h1m1 0h5m1 0h7m1 0h1m1 0h7m1 0h3M6 31.5h2m3 0h3m1 0h1m1 0h2m1 0h1m2 0h2m2 0h1m1 0h1m1 0h3m1 0h3m6 0h2m1 0h1m1 0h1m2 0h1M4 32.5h2m1 0h2m1 0h3m1 0h1m2 0h3m1 0h1m1 0h1m1 0h3m1 0h1m1 0h1m2 0h2m2 0h3m1 0h4m2 0h3m1 0h1M7 33.5h2m2 0h7m1 0h2m1 0h2m6 0h1m2 0h1m1 0h1m3 0h1m1 0h1m1 0h5m2 0h1M4 34.5h1m1 0h5m1 0h2m3 0h3m6 0h1m1 0h2m1 0h1m2 0h1m3 0h4m1 0h1m2 0h1m3 0h3M4 35.5h4m4 0h2m1 0h3m4 0h3m2 0h1m1 0h1m3 0h3m3 0h1m3 0h2m2 0h1m3 0h1M5 36.5h1m3 0h2m3 0h3m1 0h1m1 0h4m1 0h2m1 0h1m4 0h2m2 0h1m1 0h6m1 0h1m1 0h1m1 0h3M6 37.5h2m3 0h1m1 0h1m1 0h1m3 0h1m1 0h1m1 0h1m5 0h2m1 0h1m2 0h1m3 0h3m2 0h2m1 0h1m2 0h1M4 38.5h2m2 0h1m1 0h2m1 0h2m1 0h2m1 0h2m1 0h2m1 0h3m3 0h2m4 0h2m1 0h1m1 0h1m2 0h5m1 0h2M5 39.5h1m1 0h1m3 0h2m1 0h1m1 0h2m3 0h1m2 0h1m3 0h1m3 0h2m2 0h2m1 0h1m3 0h6m2 0h2M5 40.5h1m1 0h4m4 0h1m2 0h2m2 0h3m1 0h1m2 0h1m1 0h1m3 0h1m1 0h2m1 0h2m1 0h3m2 0h5M5 41.5h3m3 0h1m1 0h2m2 0h1m2 0h3m1 0h10m1 0h3m6 0h1m1 0h2m2 0h1M5 42.5h1m3 0h2m2 0h1m2 0h3m1 0h1m3 0h1m4 0h2m2 0h1m1 0h5m2 0h1m1 0h3m1 0h1m2 0h2M5 43.5h3m3 0h1m1 0h1m1 0h1m1 0h2m2 0h2m1 0h1m2 0h1m3 0h3m1 0h2m1 0h2m1 0h2m8 0h1M4 44.5h3m3 0h3m2 0h1m1 0h3m1 0h2m2 0h7m2 0h2m1 0h4m1 0h10M12 45.5h2m1 0h3m1 0h1m1 0h1m4 0h1m3 0h2m3 0h2m1 0h4m2 0h1m3 0h1M4 46.5h7m2 0h1m1 0h2m1 0h1m1 0h1m3 0h3m1 0h1m1 0h1m1 0h6m1 0h2m1 0h1m1 0h1m1 0h1m1 0h2m1 0h2M4 47.5h1m5 0h1m5 0h1m4 0h1m2 0h1m1 0h1m3 0h2m1 0h2m1 0h9m3 0h1m2 0h2M4 48.5h1m1 0h3m1 0h1m1 0h1m1 0h1m1 0h7m1 0h9m1 0h2m1 0h1m1 0h10m1 0h3M4 49.5h1m1 0h3m1 0h1m1 0h2m3 0h1m2 0h2m1 0h4m2 0h1m2 0h1m6 0h1m1 0h1m2 0h3m2 0h1m1 0h2M4 50.5h1m1 0h3m1 0h1m1 0h1m1 0h2m2 0h1m1 0h2m1 0h1m6 0h2m3 0h1m2 0h2m2 0h1m3 0h2m2 0h3M4 51.5h1m5 0h1m2 0h1m1 0h2m1 0h2m2 0h1m1 0h2m4 0h2m4 0h1m2 0h1m1 0h4m1 0h3m3 0h1M4 52.5h7m2 0h3m3 0h1m1 0h3m3 0h2m1 0h1m2 0h1m1 0h1m3 0h2m1 0h2m3 0h6"/></svg>
